<svg xmlns="http://www.w3.org/2000/svg" xmlns:xlink="http://www.w3.org/1999/xlink" contentStyleType="text/css" data-diagram-type="ACTIVITY" height="1721.25px" preserveAspectRatio="none" style="width:660px;height:1721px;background:#FFFFFF;" version="1.1" viewBox="0 0 660 1721" width="660px" zoomAndPan="magnify"><?plantuml 1.2026.6?><defs/><g><ellipse cx="309.4189" cy="46.875" fill="#222222" rx="18.75" ry="18.75" style="stroke:#222222;stroke-width:1.875;"/><rect fill="#E8EEF5" height="97.8699" rx="23.4375" ry="23.4375" style="stroke:#7890A5;stroke-width:0.9375;" width="481.1224" x="68.8577" y="103.125"/><text fill="#203040" font-family="Arial" font-size="26.25" lengthAdjust="spacing" textLength="443.6224" x="87.6077" y="146.4972">Freigegebener Unternehmensbestand</text><text fill="#203040" font-family="Arial" font-size="26.25" lengthAdjust="spacing" textLength="407.1313" x="87.6077" y="176.6821">oder pers&#246;nliche Arbeitsunterlagen</text><rect fill="#E8EEF5" height="97.8699" rx="23.4375" ry="23.4375" style="stroke:#7890A5;stroke-width:0.9375;" width="486.9543" x="65.9418" y="238.4949"/><text fill="#203040" font-family="Arial" font-size="26.25" lengthAdjust="spacing" textLength="449.4543" x="84.6918" y="281.8671">Pers&#246;nliche Speicherung bleibt erlaubt</text><text fill="#203040" font-family="Arial" font-size="26.25" lengthAdjust="spacing" textLength="385.2136" x="84.6918" y="312.052">Beitr&#228;ge sind standardm&#228;&#223;ig aus</text><rect fill="#E8EEF5" height="97.8699" rx="23.4375" ry="23.4375" style="stroke:#7890A5;stroke-width:0.9375;" width="413.8953" x="102.4713" y="513.262"/><text fill="#203040" font-family="Arial" font-size="26.25" lengthAdjust="spacing" textLength="194.0936" x="121.2213" y="556.6342">Keine Aufnahme</text><text fill="#203040" font-family="Arial" font-size="26.25" lengthAdjust="spacing" textLength="376.3953" x="121.2213" y="586.8192">Normale KI-Arbeit bleibt m&#246;glich</text><ellipse cx="309.4189" cy="669.2569" fill="none" rx="20.625" ry="20.625" style="stroke:#222222;stroke-width:1.875;"/><ellipse cx="309.4189" cy="669.2569" fill="#222222" rx="11.25" ry="11.25" style="stroke:#222222;stroke-width:1.875;"/><polygon fill="#E8EEF5" points="69.375,373.8647,549.4629,373.8647,571.9629,419.1422,549.4629,464.4196,69.375,464.4196,46.875,419.1422,69.375,373.8647" style="stroke:#7890A5;stroke-width:0.9375;stroke-linejoin:miter;stroke-miterlimit:10;"/><text fill="#000000" font-family="Arial" font-size="26.25" lengthAdjust="spacing" textLength="20.4309" x="316.9189" y="489.0417">ja</text><text fill="#203040" font-family="Arial" font-size="26.25" lengthAdjust="spacing" textLength="302.0544" x="69.375" y="398.4869">Pers&#246;nlicher Beitrag ohne</text><text fill="#203040" font-family="Arial" font-size="26.25" lengthAdjust="spacing" textLength="385.2008" x="69.375" y="428.6719">Zustimmung bei Erstnutzung und</text><text fill="#203040" font-family="Arial" font-size="26.25" lengthAdjust="spacing" textLength="480.0879" x="69.375" y="458.8568">je Projekt oder ohne sichtbaren Zustand?</text><text fill="#000000" font-family="Arial" font-size="26.25" lengthAdjust="spacing" textLength="49.6289" x="571.9629" y="413.5794">nein</text><rect fill="#E8EEF5" height="67.6849" rx="23.4375" ry="23.4375" style="stroke:#7890A5;stroke-width:0.9375;" width="395.0153" x="111.9113" y="862.4744"/><text fill="#203040" font-family="Arial" font-size="26.25" lengthAdjust="spacing" textLength="357.5153" x="130.6613" y="905.8466">Keine automatische Aufnahme</text><ellipse cx="309.4189" cy="1002.2543" fill="none" rx="20.625" ry="20.625" style="stroke:#222222;stroke-width:1.875;"/><ellipse cx="309.4189" cy="1002.2543" fill="#222222" rx="11.25" ry="11.25" style="stroke:#222222;stroke-width:1.875;"/><polygon fill="#E8EEF5" points="124.8486,768.6319,493.9893,768.6319,516.4893,791.1319,493.9893,813.6319,124.8486,813.6319,102.3486,791.1319,124.8486,768.6319" style="stroke:#7890A5;stroke-width:0.9375;stroke-linejoin:miter;stroke-miterlimit:10;"/><text fill="#000000" font-family="Arial" font-size="26.25" lengthAdjust="spacing" textLength="49.6289" x="316.9189" y="838.2541">nein</text><text fill="#203040" font-family="Arial" font-size="26.25" lengthAdjust="spacing" textLength="369.1406" x="124.8486" y="800.6616">Zweck und Quellrechte gekl&#228;rt?</text><text fill="#000000" font-family="Arial" font-size="26.25" lengthAdjust="spacing" textLength="20.4309" x="516.4893" y="785.5692">ja</text><rect fill="#E8EEF5" height="97.8699" rx="23.4375" ry="23.4375" style="stroke:#7890A5;stroke-width:0.9375;" width="523.4583" x="47.6898" y="1101.6293"/><text fill="#203040" font-family="Arial" font-size="26.25" lengthAdjust="spacing" textLength="474.2688" x="66.4398" y="1145.0015">Kontrollierte Aufnahme und Aufbereitung</text><text fill="#203040" font-family="Arial" font-size="26.25" lengthAdjust="spacing" textLength="485.9583" x="66.4398" y="1175.1865">Herkunft und Rechte an allen Ableitungen</text><rect fill="#E8EEF5" height="97.8699" rx="23.4375" ry="23.4375" style="stroke:#7890A5;stroke-width:0.9375;" width="501.5662" x="58.6359" y="1236.9992"/><text fill="#203040" font-family="Arial" font-size="26.25" lengthAdjust="spacing" textLength="464.0662" x="77.3859" y="1280.3714">Berechtigungspr&#252;fung bei jeder Abfrage</text><text fill="#203040" font-family="Arial" font-size="26.25" lengthAdjust="spacing" textLength="434.7913" x="77.3859" y="1310.5563">Nur berechtigte Treffer an das Modell</text><rect fill="#E8EEF5" height="97.8699" rx="23.4375" ry="23.4375" style="stroke:#7890A5;stroke-width:0.9375;" width="535.1862" x="41.8259" y="1372.3691"/><text fill="#203040" font-family="Arial" font-size="26.25" lengthAdjust="spacing" textLength="497.6862" x="60.5759" y="1415.7413">Sperren und L&#246;schung geregelt behandeln</text><text fill="#203040" font-family="Arial" font-size="26.25" lengthAdjust="spacing" textLength="411.5662" x="60.5759" y="1445.9262">Auch Ableitungen und Sicherungen</text><rect fill="#E8EEF5" height="97.8699" rx="23.4375" ry="23.4375" style="stroke:#7890A5;stroke-width:0.9375;" width="530.7898" x="44.024" y="1507.739"/><text fill="#203040" font-family="Arial" font-size="26.25" lengthAdjust="spacing" textLength="433.4454" x="62.774" y="1551.1111">Beitragsstopp beendet neue Beitr&#228;ge</text><text fill="#203040" font-family="Arial" font-size="26.25" lengthAdjust="spacing" textLength="493.2898" x="62.774" y="1581.2961">Bestehende folgen den erl&#228;uterten Regeln</text><ellipse cx="309.4189" cy="1663.7338" fill="none" rx="20.625" ry="20.625" style="stroke:#222222;stroke-width:1.875;"/><ellipse cx="309.4189" cy="1663.7338" fill="#222222" rx="11.25" ry="11.25" style="stroke:#222222;stroke-width:1.875;"/><line style="stroke:#446B8C;stroke-width:1.875;" x1="309.4189" x2="309.4189" y1="65.625" y2="103.125"/><polygon fill="#446B8C" points="301.9189,84.375,309.4189,103.125,316.9189,84.375,309.4189,91.875" style="stroke:#446B8C;stroke-width:1.875;stroke-linejoin:miter;stroke-miterlimit:10;"/><line style="stroke:#446B8C;stroke-width:1.875;" x1="309.4189" x2="309.4189" y1="200.9949" y2="238.4949"/><polygon fill="#446B8C" points="301.9189,219.7449,309.4189,238.4949,316.9189,219.7449,309.4189,227.2449" style="stroke:#446B8C;stroke-width:1.875;stroke-linejoin:miter;stroke-miterlimit:10;"/><line style="stroke:#446B8C;stroke-width:1.875;" x1="309.4189" x2="309.4189" y1="611.1319" y2="648.6319"/><polygon fill="#446B8C" points="301.9189,629.8819,309.4189,648.6319,316.9189,629.8819,309.4189,637.3819" style="stroke:#446B8C;stroke-width:1.875;stroke-linejoin:miter;stroke-miterlimit:10;"/><line style="stroke:#446B8C;stroke-width:1.875;" x1="309.4189" x2="309.4189" y1="464.4196" y2="513.262"/><polygon fill="#446B8C" points="301.9189,494.512,309.4189,513.262,316.9189,494.512,309.4189,502.012" style="stroke:#446B8C;stroke-width:1.875;stroke-linejoin:miter;stroke-miterlimit:10;"/><line style="stroke:#446B8C;stroke-width:1.875;" x1="571.9629" x2="594.4629" y1="419.1422" y2="419.1422"/><polygon fill="#446B8C" points="586.9629,579.8708,594.4629,598.6208,601.9629,579.8708,594.4629,587.3708" style="stroke:#446B8C;stroke-width:1.875;stroke-linejoin:miter;stroke-miterlimit:10;"/><line style="stroke:#446B8C;stroke-width:1.875;" x1="594.4629" x2="594.4629" y1="419.1422" y2="731.1319"/><line style="stroke:#446B8C;stroke-width:1.875;" x1="594.4629" x2="309.4189" y1="731.1319" y2="731.1319"/><line style="stroke:#446B8C;stroke-width:1.875;" x1="309.4189" x2="309.4189" y1="731.1319" y2="768.6319"/><polygon fill="#446B8C" points="301.9189,749.8819,309.4189,768.6319,316.9189,749.8819,309.4189,757.3819" style="stroke:#446B8C;stroke-width:1.875;stroke-linejoin:miter;stroke-miterlimit:10;"/><line style="stroke:#446B8C;stroke-width:1.875;" x1="309.4189" x2="309.4189" y1="336.3647" y2="373.8647"/><polygon fill="#446B8C" points="301.9189,355.1147,309.4189,373.8647,316.9189,355.1147,309.4189,362.6147" style="stroke:#446B8C;stroke-width:1.875;stroke-linejoin:miter;stroke-miterlimit:10;"/><line style="stroke:#446B8C;stroke-width:1.875;" x1="309.4189" x2="309.4189" y1="930.1593" y2="981.6293"/><polygon fill="#446B8C" points="301.9189,962.8793,309.4189,981.6293,316.9189,962.8793,309.4189,970.3793" style="stroke:#446B8C;stroke-width:1.875;stroke-linejoin:miter;stroke-miterlimit:10;"/><line style="stroke:#446B8C;stroke-width:1.875;" x1="309.4189" x2="309.4189" y1="813.6319" y2="862.4744"/><polygon fill="#446B8C" points="301.9189,843.7244,309.4189,862.4744,316.9189,843.7244,309.4189,851.2244" style="stroke:#446B8C;stroke-width:1.875;stroke-linejoin:miter;stroke-miterlimit:10;"/><line style="stroke:#446B8C;stroke-width:1.875;" x1="516.4893" x2="538.9893" y1="791.1319" y2="791.1319"/><polygon fill="#446B8C" points="531.4893,925.3793,538.9893,944.1293,546.4893,925.3793,538.9893,932.8793" style="stroke:#446B8C;stroke-width:1.875;stroke-linejoin:miter;stroke-miterlimit:10;"/><line style="stroke:#446B8C;stroke-width:1.875;" x1="538.9893" x2="538.9893" y1="791.1319" y2="1064.1293"/><line style="stroke:#446B8C;stroke-width:1.875;" x1="538.9893" x2="309.4189" y1="1064.1293" y2="1064.1293"/><line style="stroke:#446B8C;stroke-width:1.875;" x1="309.4189" x2="309.4189" y1="1064.1293" y2="1101.6293"/><polygon fill="#446B8C" points="301.9189,1082.8793,309.4189,1101.6293,316.9189,1082.8793,309.4189,1090.3793" style="stroke:#446B8C;stroke-width:1.875;stroke-linejoin:miter;stroke-miterlimit:10;"/><line style="stroke:#446B8C;stroke-width:1.875;" x1="309.4189" x2="309.4189" y1="1199.4992" y2="1236.9992"/><polygon fill="#446B8C" points="301.9189,1218.2492,309.4189,1236.9992,316.9189,1218.2492,309.4189,1225.7492" style="stroke:#446B8C;stroke-width:1.875;stroke-linejoin:miter;stroke-miterlimit:10;"/><line style="stroke:#446B8C;stroke-width:1.875;" x1="309.4189" x2="309.4189" y1="1334.8691" y2="1372.3691"/><polygon fill="#446B8C" points="301.9189,1353.6191,309.4189,1372.3691,316.9189,1353.6191,309.4189,1361.1191" style="stroke:#446B8C;stroke-width:1.875;stroke-linejoin:miter;stroke-miterlimit:10;"/><line style="stroke:#446B8C;stroke-width:1.875;" x1="309.4189" x2="309.4189" y1="1470.239" y2="1507.739"/><polygon fill="#446B8C" points="301.9189,1488.989,309.4189,1507.739,316.9189,1488.989,309.4189,1496.489" style="stroke:#446B8C;stroke-width:1.875;stroke-linejoin:miter;stroke-miterlimit:10;"/><line style="stroke:#446B8C;stroke-width:1.875;" x1="309.4189" x2="309.4189" y1="1605.6088" y2="1643.1088"/><polygon fill="#446B8C" points="301.9189,1624.3588,309.4189,1643.1088,316.9189,1624.3588,309.4189,1631.8588" style="stroke:#446B8C;stroke-width:1.875;stroke-linejoin:miter;stroke-miterlimit:10;"/><?plantuml-src hL9DRzD04BtlhnY9Itj0IY50I0_8gHA12bMXSEbjRO_jJTQxrkmi5KNybbxo6thYvZ_6hFE1LN4aaXNjVBptvis4ZN6T9jr2sHaucqrKE4PoNMngyj6L5zvwWcUhuJUg28qk_PrnDLJQ1XnbIgnqjBpoZgzqYv2HqVRV-HjpZt0s7IKp8d-tvvnENozc5wEaBjXyD_m3VYg0nLE9ozbokNgLCfvAf7tqpUpj94lHnBUFlPYyd4mdwjS8ch1WxMgB_m-RDR6QhmXDZJNcw93WcsCaXqsBBkGe9QvKNW2XGmhzexEcQ99ZEHeECHLRNQCxL_FhSS5DX-cVejYVMpGvGwgCEQk5T5A_hH62SIKC59hAjj_s3wO67SEvCXMSZF48XYvTWsySgjiOsBJj08u6bXJOHRvFRt54hH6koQznmp18Jpr2LZISQq87gLr8tvq2D_8yMUjJiMX-YKRgibWvBUEhAq-j5hilFppVZNiOfEqVwwJgN9e2-qwXd1USE6a_LUXAKmtwR--ms2Gzy3cYjRA_XX5gtDX-ItmatxKTwNLatsesOR1vh-K9KzAxuvbVobx9MskG-6_zm2gF76MtBBQezqYRw2eUCbzsKhG3RQreoD9WgMpOum87gQQMGEYe_rqTV5vZSZFBArc4-1C9yaEjm7qbh2h92sof0tmIwwqLF3a5Igudve_zemoMy6hfhD6AgTZ8Bj0wbSMY6MiPEcuEPxJNDbn1I6PqqYek88F3Y70yApcmmDYa55JU9g1IFZc_VXiv-UJ40U4Mm8Jp1m00?></g></svg>